<svg xmlns="http://www.w3.org/2000/svg" viewBox="0 0 32 32" width="32px" height="32px">
  <path fill="#FFBC5E" d="M 12.007812 1.5429688 C 11.779481 3.3672251 10.476562 4.1484375 10.476562 4.1484375 L 11.523438 5.8515625 C 11.523438 5.8515625 13.650519 4.5207593 13.992188 1.7910156 L 12.007812 1.5429688 z M 17.007812 1.875 C 16.63651 4.838478 14.476562 6.1484375 14.476562 6.1484375 L 15.523438 7.8515625 C 15.523438 7.8515625 18.50749 5.993522 18.992188 2.125 L 17.007812 1.875 z M 4.9277344 8.6289062 L 3.0722656 9.3710938 C 3.0722656 9.3710938 5 14.148148 5 23 L 5 24 L 25 24 L 25 23 C 25 14.148148 26.927734 9.3710937 26.927734 9.3710938 L 25.072266 8.6289062 C 25.072266 8.6289062 23.208768 13.536779 23.052734 22 L 6.9472656 22 C 6.7912319 13.536779 4.9277344 8.6289062 4.9277344 8.6289062 z M 8 10 L 8 12 L 22 12 L 22 10 L 8 10 z M 30.007812 12.480469 C 30.007812 12.480469 29.508694 16.006571 26.652344 17.0625 L 27.347656 18.9375 C 31.443306 17.423429 31.992187 12.732422 31.992188 12.732422 L 30.007812 12.480469 z M 1 26 L 1 28 L 29 28 L 29 26 L 1 26 z"/>
</svg>
