<svg xmlns="http://www.w3.org/2000/svg" width="64" height="64" viewBox="0 0 64 64" fill="none" stroke="hsl(35, 100%, 68%)" stroke-width="2" stroke-linecap="round" stroke-linejoin="round">
  <!-- Input Layer -->
  <circle cx="8" cy="8" r="2.5"/>
  <circle cx="8" cy="32" r="2.5"/>
  <circle cx="8" cy="56" r="2.5"/>
  <!-- Hidden Layer 1 -->
  <circle cx="24" cy="16" r="2.5"/>
  <circle cx="24" cy="32" r="2.5"/>
  <circle cx="24" cy="48" r="2.5"/>
  <!-- Hidden Layer 2 -->
  <circle cx="40" cy="16" r="2.5"/>
  <circle cx="40" cy="32" r="2.5"/>
  <circle cx="40" cy="48" r="2.5"/>
  <!-- Output Layer -->
  <circle cx="56" cy="32" r="2.5"/>
  
  <!-- Connections -->
  <line x1="8" y1="8" x2="24" y2="16"/>
  <line x1="8" y1="32" x2="24" y2="16"/>
  <line x1="8" y1="32" x2="24" y2="32"/>
  <line x1="8" y1="32" x2="24" y2="48"/>
  <line x1="8" y1="56" x2="24" y2="48"/>
  
  <line x1="24" y1="16" x2="40" y2="16"/>
  <line x1="24" y1="32" x2="40" y2="32"/>
  <line x1="24" y1="48" x2="40" y2="48"/>
  <line x1="24" y1="16" x2="40" y2="32"/>
  <line x1="24" y1="48" x2="40" y2="32"/>
  
  <line x1="40" y1="16" x2="56" y2="32"/>
  <line x1="40" y1="32" x2="56" y2="32"/>
  <line x1="40" y1="48" x2="56" y2="32"/>
</svg>
