<svg width="200" height="200" viewBox="0 0 200 200" xmlns="http://www.w3.org/2000/svg">
  <rect width="200" height="200" fill="#000000"/>

  <!-- Head -->
  <circle cx="100" cy="60" r="20" fill="#ff851b"/>

  <!-- Glasses -->
  <rect x="85" y="52" width="10" height="6" fill="#000000"/>
  <rect x="105" y="52" width="10" height="6" fill="#000000"/>
  <line x1="95" y1="55" x2="105" y2="55" stroke="#000000" stroke-width="2"/>
  <line x1="85" y1="55" x2="75" y2="55" stroke="#000000" stroke-width="2"/>
  <line x1="115" y1="55" x2="125" y2="55" stroke="#000000" stroke-width="2"/>

  <!-- Hoodie -->
  <path d="M80 50 Q100 90 120 50 Q100 30 80 50" fill="#ff851b" stroke="#000000" stroke-width="2"/>
  <path d="M80 50 Q100 60 120 50" stroke="#000000" stroke-width="2" fill="none"/>

  <!-- Body with outline -->
  <rect x="85" y="80" width="30" height="50" fill="#ff851b" stroke="#000000" stroke-width="2"/>

  <!-- Arms with hands -->
  <rect x="60" y="80" width="25" height="10" fill="#ff851b" stroke="#000000" stroke-width="2"/>
  <circle cx="60" cy="85" r="5" fill="#ff851b" stroke="#000000" stroke-width="2"/>
  <rect x="115" y="80" width="25" height="10" fill="#ff851b" stroke="#000000" stroke-width="2"/>
  <circle cx="140" cy="85" r="5" fill="#ff851b" stroke="#000000" stroke-width="2"/>

  <!-- Legs with shoes -->
  <rect x="85" y="130" width="10" height="30" fill="#ff851b" stroke="#000000" stroke-width="2"/>
  <rect x="105" y="130" width="10" height="30" fill="#ff851b" stroke="#000000" stroke-width="2"/>
  <rect x="83" y="160" width="14" height="5" fill="#000000"/>
  <rect x="103" y="160" width="14" height="5" fill="#000000"/>
</svg>